<svg xmlns="http://www.w3.org/2000/svg" viewBox="0 0 154.16 175.09"><defs><style>.cls-1{fill:#1d1d1b;}.cls-2{fill:#010101;}</style></defs><g id="Layer_2" data-name="Layer 2"><g id="Layer_1-2" data-name="Layer 1"><path class="cls-1" d="M11.07,87.55A63.44,63.44,0,0,1,12.2,75.44L5,70.36A73.27,73.27,0,0,0,3,87.55a74.41,74.41,0,0,0,3,20.93l7-5A66.82,66.82,0,0,1,11.07,87.55ZM25.72,34l6.69,4.76A66.8,66.8,0,0,1,59.69,23.44V15.09A74.66,74.66,0,0,0,25.72,34ZM150.1,69.55l-7.18,5.09a65,65,0,0,1,1.29,12.91,66.06,66.06,0,0,1-2.1,16.54l7,5a74.25,74.25,0,0,0,3.15-21.5A75.64,75.64,0,0,0,150.1,69.55Zm-30.5,69.64a66,66,0,0,1-24,12.46V160a74.69,74.69,0,0,0,30.82-16Zm-84.4-.37-6.78,4.8A75.14,75.14,0,0,0,59.69,160v-8.35A66.26,66.26,0,0,1,35.2,138.82ZM95.59,15.09v8.35A66.47,66.47,0,0,1,122.3,38.21l6.7-4.77A74.85,74.85,0,0,0,95.59,15.09Z"/><path class="cls-2" d="M75.57,67.65a3.79,3.79,0,0,0,1.52-.58,3.91,3.91,0,0,0,1.52.58c2.71.45,4.46-1.61,5-5a13.73,13.73,0,0,0-.42-4.86l-1.58-6.86v0L80.51,39.76l.28,10.88c-.06.46-.55,3.19-3.7,7.58-3.14-4.39-3.63-7.12-3.7-7.58l.29-10.88L72.62,50.89v0L71,57.8a13.73,13.73,0,0,0-.42,4.86C71.12,66,72.87,68.1,75.57,67.65Z"/><path class="cls-2" d="M80.08,103.78a8.08,8.08,0,0,0-3,4.63,8,8,0,0,0-3-4.63c-4.92-3.3-6.39-5.92-6.62-6.35l-.86-2.69.22,3.18s0,0,0,0l.79,7a13.68,13.68,0,0,0,1.21,4.73c1.6,3,3.93,4.38,6.33,3.07a3.64,3.64,0,0,0,1.91-2.62A3.67,3.67,0,0,0,79,112.76c2.4,1.31,4.73-.05,6.33-3.07A13.68,13.68,0,0,0,86.55,105l.79-7s0,0,0,0l.22-3.18-.87,2.69C86.48,97.86,85,100.48,80.08,103.78Z"/><path class="cls-2" d="M80.08,115.52a8.23,8.23,0,0,0-2.79,3.85H76.9a8.25,8.25,0,0,0-2.8-3.85c-4.92-3.3-6.39-5.92-6.62-6.35l-.86-2.69.22,3.18s0,0,0,0l.79,7a13.68,13.68,0,0,0,1.21,4.73c1.56,3,3.84,4.32,6.19,3.13v11.11a2.06,2.06,0,1,0,4.11,0V124.56c2.35,1.19,4.62-.17,6.19-3.13a13.68,13.68,0,0,0,1.21-4.73l.79-7s0,0,0,0l.22-3.18-.87,2.69C86.48,109.6,85,112.22,80.08,115.52Z"/><path class="cls-2" d="M80.08,92a8.11,8.11,0,0,0-3,4.63,8,8,0,0,0-3-4.63c-4.92-3.3-6.39-5.92-6.62-6.35L66.62,83l.22,3.19s0,0,0,0l.79,7A13.68,13.68,0,0,0,68.85,98c1.6,3,3.93,4.38,6.33,3.07a3.64,3.64,0,0,0,1.91-2.61A3.68,3.68,0,0,0,79,101c2.4,1.31,4.73,0,6.33-3.07a13.68,13.68,0,0,0,1.21-4.73l.79-7s0,0,0,0L87.57,83l-.87,2.69C86.48,86.12,85,88.74,80.08,92Z"/><path class="cls-2" d="M80.08,80.3a8.11,8.11,0,0,0-3,4.63,8,8,0,0,0-3-4.63C69.18,77,67.71,74.39,67.48,74l-.86-2.69.22,3.19s0,0,0,0l.79,7a13.68,13.68,0,0,0,1.21,4.73c1.6,3,3.93,4.38,6.33,3.07a3.64,3.64,0,0,0,1.91-2.61A3.68,3.68,0,0,0,79,89.28c2.4,1.31,4.73,0,6.33-3.07a13.68,13.68,0,0,0,1.21-4.73l.79-7s0,0,0,0l.22-3.19L86.7,74C86.48,74.39,85,77,80.08,80.3Z"/><path class="cls-2" d="M66.85,62.75l.79,7a13.68,13.68,0,0,0,1.21,4.73c1.6,3,3.93,4.39,6.33,3.07a3.64,3.64,0,0,0,1.91-2.61A3.68,3.68,0,0,0,79,77.54c2.4,1.32,4.73-.05,6.33-3.07a13.68,13.68,0,0,0,1.21-4.73l.79-7s0,0,0,0l.22-3.19-.87,2.69c-.22.44-1.69,3.05-6.62,6.35a8.11,8.11,0,0,0-3,4.63,8,8,0,0,0-3-4.63c-4.92-3.3-6.39-5.91-6.62-6.35l-.86-2.69.22,3.19S66.85,62.73,66.85,62.75Z"/><path class="cls-1" d="M93.53,29c-1.17,1.81-4.47,4.88-16,4.88H77.4c-11.54,0-14.49-3.07-15.66-4.88-.92-1.41,0-4,1.62-6.46a17.79,17.79,0,0,1,1.53-2c2.54-2.95,7.34-3.27,7.34-3.27a7.93,7.93,0,0,0,5.17,1.85h.08a9.65,9.65,0,0,0,5.57-1.85s4.8.32,7.34,3.27a17.79,17.79,0,0,1,1.53,2C93.58,25.05,94.46,27.6,93.53,29Z"/><path class="cls-1" d="M85.51,7.46a12.72,12.72,0,0,1-1.34,5.77h0a7.2,7.2,0,0,1-6.57,4.36h-.24a7.43,7.43,0,0,1-6.66-4.32,12.44,12.44,0,0,1-1.41-5.81C69.25,3.27,73,0,77.32,0h.28A7.68,7.68,0,0,1,85.51,7.46Z"/><path class="cls-1" d="M93.53,170.21c-1.17,1.82-4.47,4.88-16,4.88H77.4c-11.54,0-14.49-3.06-15.66-4.88s.57-5.45,3.15-8.47a3.42,3.42,0,0,1,.57-.57c2.58-2.42,6.77-2.7,6.77-2.7a7.91,7.91,0,0,0,5.17,1.86h.08a9.62,9.62,0,0,0,5.57-1.86s4.19.28,6.77,2.7a3.84,3.84,0,0,1,.57.57C93,164.76,94.7,168.39,93.53,170.21Z"/><path class="cls-1" d="M85.51,148.67a13,13,0,0,1-1.05,5.08c-1.17,2.86-3.47,5-6.9,5h-.24c-3.43,0-5.81-2.22-7-5.12a12.28,12.28,0,0,1-1-5,7.38,7.38,0,0,1,4.56-6.7,8.5,8.5,0,0,1,3.51-.77h.28a8.32,8.32,0,0,1,3.47.77A7.39,7.39,0,0,1,85.51,148.67Z"/><path class="cls-1" d="M153.81,136.32c-.81,1.25-2.58,3-7.26,4.08a41.52,41.52,0,0,1-8.76.8h-.16a38.9,38.9,0,0,1-7.54-.6c-4.8-.85-6.78-2.5-7.71-3.79a2.11,2.11,0,0,1-.36-.49c-1.17-1.81.56-5.45,3.14-8.47s7.31-3.27,7.31-3.27.12.08.32.24a7.88,7.88,0,0,0,4.88,1.62h.08a9.58,9.58,0,0,0,4.16-1,10.48,10.48,0,0,0,1.41-.85s4.8.32,7.34,3.27a18.14,18.14,0,0,1,2.34,3.43C154.09,133.26,154.53,135.15,153.81,136.32Z"/><path class="cls-1" d="M145.78,114.78c0,4.88-2.66,10.12-7.95,10.12h-.24a6.83,6.83,0,0,1-4.07-1.25c-2.63-1.85-4-5.44-4-8.87,0-4.2,3.75-7.47,8-7.47h.32a8.19,8.19,0,0,1,3.15.61A7.49,7.49,0,0,1,145.78,114.78Z"/><path class="cls-1" d="M32.25,136.16s0,.12-.08.16c-.8,1.21-2.58,3-7.22,4.08a41.84,41.84,0,0,1-8.79.8H16a40.23,40.23,0,0,1-8.19-.72c-4.92-1-6.61-2.87-7.42-4.16s-.32-3.06.85-5.12a18.08,18.08,0,0,1,2.3-3.35c2.54-2.95,7.3-3.27,7.3-3.27a7.34,7.34,0,0,0,2.95,1.53,7.3,7.3,0,0,0,2.25.33h.09a9.61,9.61,0,0,0,5.56-1.86,4.52,4.52,0,0,1,.73.08c1.41.2,4.68.93,6.62,3.19C31.53,130.79,33.26,134.3,32.25,136.16Z"/><path class="cls-1" d="M24.14,114.78a11.54,11.54,0,0,1-2.94,8,6.81,6.81,0,0,1-5,2.09H16a7,7,0,0,1-3.34-.8v0c-3.11-1.66-4.72-5.57-4.72-9.28a3.77,3.77,0,0,1,0-.69,7.68,7.68,0,0,1,6.21-6.57,7.94,7.94,0,0,1,1.77-.21h.33A7.7,7.7,0,0,1,24.14,114.78Z"/><path class="cls-1" d="M153.81,62.9a8.59,8.59,0,0,1-4.64,3.3,29.12,29.12,0,0,1-8,1.5c-1.05,0-2.18.08-3.39.08h-.16a53.29,53.29,0,0,1-5.61-.29c-6.94-.8-9-3.1-10-4.59s0-4.24,1.89-6.86c.37-.53.81-1.09,1.25-1.62,2.55-2.94,7.31-3.26,7.31-3.26a5.32,5.32,0,0,0,1.53,1,0,0,0,0,0,0,0,8,8,0,0,0,3.63.85h.08a9.9,9.9,0,0,0,5.17-1.57l.4-.28s4.8.32,7.34,3.26S154.94,61.08,153.81,62.9Z"/><path class="cls-1" d="M145.78,41.35c0,3.31-1.21,6.82-3.67,8.72a6.88,6.88,0,0,1-4.28,1.45h-.24c-5.29,0-8.07-5.29-8.07-10.17a7,7,0,0,1,2.26-5.12,8.22,8.22,0,0,1,5.77-2.34h.32A7.71,7.71,0,0,1,145.78,41.35Z"/><path class="cls-1" d="M32.17,62.9c-.93,1.45-3.31,3.75-10.2,4.55a46.69,46.69,0,0,1-5.81.33H16c-.68,0-1.33,0-1.93,0A31.47,31.47,0,0,1,6,66.61C2.44,65.56,1.11,64,.38,62.9c-1.17-1.82.57-5.45,3.15-8.48s7.3-3.26,7.3-3.26A5.66,5.66,0,0,0,12,52a8.29,8.29,0,0,0,4,1h.09a9.64,9.64,0,0,0,5.56-1.85,1.12,1.12,0,0,1,.24,0c1,.08,4.93.68,7.11,3.22a17.79,17.79,0,0,1,1.12,1.46C32.09,58.54,33.14,61.36,32.17,62.9Z"/><path class="cls-1" d="M24.14,41.35c0,4.88-2.66,10.17-7.94,10.17H16a6.65,6.65,0,0,1-3.18-.77c-3.23-1.61-4.88-5.61-4.88-9.4,0-4.19,3.75-7.46,8-7.46h.33a8,8,0,0,1,6.45,3.19A6.9,6.9,0,0,1,24.14,41.35Z"/></g></g></svg>