<svg xmlns="http://www.w3.org/2000/svg" viewBox="0 0 137.27 150.02"><defs><style>.cls-1{fill:#1e1e1c;}.cls-2{fill:#1d1d1b;}</style></defs><g id="Layer_2" data-name="Layer 2"><g id="Layer_1-2" data-name="Layer 1"><path class="cls-1" d="M68.33,93.73c-13.51,0-16.94-3.52-18.31-5.6s.65-6.29,3.68-9.74,8.59-3.76,8.59-3.76a9.31,9.31,0,0,0,6.06,2.14h.12A11.47,11.47,0,0,0,75,74.63s5.62.37,8.59,3.76,5.05,7.65,3.68,9.74-5.25,5.6-18.77,5.6Z"/><path class="cls-1" d="M68.6,54.76c5,0,9.25,3.78,9.25,8.6C77.85,69,74.73,75,68.56,75h-.3c-6.17,0-9.45-6.05-9.45-11.65,0-4.82,4.4-8.6,9.43-8.6Z"/><path class="cls-2" d="M136.34,96.9c-1.83-6.86-6.47-14.45-13.23-22,6.61-7.49,11.16-15,13-21.75,1.61-6,1.12-11.25-1.47-15.64C129,28,114.3,25.23,95.69,28.73,89.47,11.14,79.69,0,68.5,0s-21,11.12-27.17,28.69C22.82,25.24,8.22,28,2.65,37.48.08,41.87-.42,47.13,1.19,53.12c1.83,6.77,6.36,14.25,13,21.74C7.4,82.43,2.75,90,.92,96.9c-1.6,6-1.11,11.26,1.47,15.64,4.05,6.87,12.85,10.22,24.47,10.22a78.72,78.72,0,0,0,14.46-1.46C47.55,138.88,57.32,150,68.5,150s21-11.15,27.2-28.76a79.26,79.26,0,0,0,14.71,1.5c11.61,0,20.43-3.35,24.47-10.22C137.46,108.16,138,102.9,136.34,96.9ZM92.66,49.81c-2.2-1.38-4.46-2.73-6.76-4s-4.78-2.63-7.15-3.85c4-1.45,7.78-2.65,11.42-3.63A114,114,0,0,1,92.66,49.81ZM50.86,26.46c5-11.64,11.4-18.31,17.64-18.31s12.68,6.67,17.64,18.31c.56,1.31,1.1,2.69,1.6,4.09a138,138,0,0,0-19.09,6.66,141,141,0,0,0-19.36-6.75C49.78,29.09,50.31,27.74,50.86,26.46Zm-4,11.76q5.7,1.48,11.68,3.7c-2.38,1.22-4.76,2.49-7.15,3.85S46.62,48.54,44.32,50A115.29,115.29,0,0,1,46.85,38.22ZM44.27,99.84q3.58,2.28,7.37,4.42,3.47,2,6.91,3.73-6.09,2.25-11.72,3.75A120.43,120.43,0,0,1,44.27,99.84ZM9.05,51c-1-3.82-.81-7,.62-9.41,2.44-4.13,8.53-6.33,17.17-6.33a61.56,61.56,0,0,1,7.84.53c1.39.17,2.8.38,4.23.65a135.15,135.15,0,0,0-3.68,19.67A140.82,140.82,0,0,0,19.8,69C14.29,62.66,10.51,56.48,9.05,51Zm25.3,31.74c-3.23-2.58-6.23-5.23-8.94-7.87,2.73-2.65,5.73-5.28,9-7.85q-.19,3.92-.19,8C34.18,77.63,34.24,80.22,34.35,82.76ZM9.41,108.41C8,106,7.77,102.82,8.8,99c1.48-5.54,5.34-11.83,11-18.25A140.08,140.08,0,0,0,35.21,93.68a135.28,135.28,0,0,0,3.69,19.81C23.85,116.2,12.83,114.22,9.41,108.41Zm76.73,15.16c-5,11.64-11.39,18.3-17.64,18.3s-12.68-6.66-17.64-18.3c-.55-1.31-1.1-2.69-1.6-4.09q2.43-.65,4.93-1.41a146.69,146.69,0,0,0,14.44-5.35,141,141,0,0,0,19.13,6.69C87.26,120.84,86.71,122.23,86.14,123.57Zm4-11.89q-5.62-1.5-11.5-3.69,3.47-1.76,6.94-3.73c2.41-1.37,4.77-2.77,7.06-4.23A115.45,115.45,0,0,1,90.19,111.68Zm3.86-22.31c-3.94,2.73-8.11,5.34-12.44,7.8s-8.75,4.7-13,6.63c-4.33-2-8.68-4.19-13-6.63S47,92,42.94,89.18c-.4-4.6-.61-9.35-.61-14.16s.21-9.7.63-14.36c3.93-2.73,8.1-5.34,12.43-7.8,4.49-2.55,8.92-4.79,13.24-6.76,4.42,2,8.85,4.27,13.25,6.76,4.23,2.39,8.29,4.93,12.14,7.59.44,4.73.65,9.6.65,14.57S94.46,84.71,94.05,89.37Zm16.29-54c8.68,0,14.85,2.19,17.25,6.28,1.43,2.43,1.65,5.59.62,9.41-1.46,5.46-5.23,11.64-10.75,18a140.91,140.91,0,0,0-15.71-13.05,135.85,135.85,0,0,0-3.64-19.39A68.15,68.15,0,0,1,110.34,35.33Zm-7.72,31.48c3.33,2.64,6.43,5.36,9.24,8.08-2.81,2.71-5.89,5.44-9.22,8.09.13-2.62.18-5.28.18-8S102.75,69.5,102.62,66.81Zm25.25,41.6c-3.13,5.3-12.24,7.41-25,5.81-1.54-.2-3.13-.44-4.74-.74a138.54,138.54,0,0,0,3.67-19.58,142.15,142.15,0,0,0,15.69-13.14c5.66,6.42,9.52,12.71,11,18.25C129.49,102.82,129.29,106,127.87,108.41Z"/></g></g></svg>