<svg xmlns="http://www.w3.org/2000/svg" viewBox="0 0 149.27 149.27"><defs><style>.cls-1{fill:#1d1d1b;}</style></defs><g id="Layer_2" data-name="Layer 2"><g id="Layer_1-2" data-name="Layer 1"><path class="cls-1" d="M74.64,0a74.64,74.64,0,1,0,74.63,74.64A74.73,74.73,0,0,0,74.64,0Zm0,8.07A66.63,66.63,0,0,1,141.2,74.64a65.74,65.74,0,0,1-6.13,27.87L99.73,82.14c-3.15-5.89-9.16-10.73-18.2-13.76-8.59-2.9-13.31-6.17-13.31-11.25a6.49,6.49,0,0,1,6.54-6.78c4.35,0,6.65,3.75,6.65,7.62h18.76c0-12.34-6.41-20.57-16.82-23V22.75H67V35c-10.29,3-16.5,9.2-18.56,17.55L20.29,36.27A66.5,66.5,0,0,1,74.64,8.07Zm0,133.13A66.65,66.65,0,0,1,8.07,74.64a66,66,0,0,1,6.17-27.92L48.41,66.49C50.15,73.18,55.27,79,68.83,83.87c9.07,3.27,12.83,6.42,12.83,11.38a7,7,0,0,1-6.9,7.14c-4.36,0-7-3.63-7.14-8.59H46.92C47,105.05,53.09,115.34,67,117.88v12.23H83.35V117.4c10.13-3.43,16.9-10.93,18.6-20.05L129,113A66.52,66.52,0,0,1,74.64,141.2Z"/></g></g></svg>