<?xml version="1.0" encoding="UTF-8" standalone="no"?>
<!DOCTYPE svg PUBLIC "-//W3C//DTD SVG 1.1//EN" "http://www.w3.org/Graphics/SVG/1.1/DTD/svg11.dtd">
<svg width="100%" height="100%" viewBox="0 0 1600 455" version="1.1" xmlns="http://www.w3.org/2000/svg" xmlns:xlink="http://www.w3.org/1999/xlink" xml:space="preserve" xmlns:serif="http://www.serif.com/" style="fill-rule:evenodd;clip-rule:evenodd;stroke-linejoin:round;stroke-miterlimit:2;">
    <g transform="matrix(4.16667,0,0,4.16667,0,0)">
        <path d="M223.378,70.151C213.036,70.151 206.643,62.629 206.643,53.226L206.643,53.133C206.643,44.104 213.271,36.114 223.145,36.114C228.692,36.114 232.125,37.712 235.414,40.485L233.015,43.307C230.477,41.097 227.656,39.546 223.001,39.546C215.716,39.546 210.498,45.706 210.498,53.038L210.498,53.133C210.498,60.984 215.527,66.813 223.52,66.813L229.479,66.813L229.479,70.104L223.378,70.151ZM233.015,63.041L233.015,55.342L225.608,55.342L225.608,52.005L236.588,52.005L236.588,63.041L233.015,63.041Z" style="fill:rgb(121,193,66);fill-rule:nonzero;"/>
        <path d="M245.279,45.281L248.901,45.281L248.901,51.628C250.687,47.584 254.213,44.67 258.821,44.858L258.821,48.76L258.54,48.76C253.226,48.76 248.901,52.568 248.901,59.902L248.901,69.587L245.279,69.587L245.279,45.281Z" style="fill:rgb(121,193,66);fill-rule:nonzero;"/>
        <path d="M262.712,57.503L262.712,57.41C262.712,50.406 267.648,44.763 274.369,44.763C281.563,44.763 285.699,50.499 285.699,57.598C285.699,58.069 285.699,58.351 285.653,58.775L266.377,58.775C266.896,64.039 270.608,67.001 274.934,67.001C278.271,67.001 280.624,65.637 282.598,63.569L284.855,65.591C282.41,68.317 279.448,70.152 274.841,70.152C268.165,70.152 262.712,65.026 262.712,57.503ZM282.032,56.094C281.657,51.675 279.117,47.82 274.276,47.82C270.044,47.82 266.847,51.347 266.377,56.094L282.032,56.094Z" style="fill:rgb(121,193,66);fill-rule:nonzero;"/>
        <path d="M291.479,57.503L291.479,57.41C291.479,50.406 296.415,44.763 303.138,44.763C310.332,44.763 314.469,50.499 314.469,57.598C314.469,58.069 314.469,58.351 314.423,58.775L295.146,58.775C295.665,64.039 299.378,67.001 303.703,67.001C307.04,67.001 309.393,65.637 311.365,63.569L313.622,65.591C311.179,68.317 308.218,70.152 303.608,70.152C296.933,70.152 291.479,65.026 291.479,57.503ZM310.802,56.094C310.427,51.675 307.889,47.82 303.044,47.82C298.814,47.82 295.617,51.347 295.146,56.094L310.802,56.094Z" style="fill:rgb(121,193,66);fill-rule:nonzero;"/>
        <path d="M321.751,45.281L325.373,45.281L325.373,49.513C326.97,46.88 329.509,44.764 333.692,44.764C339.567,44.764 343,48.713 343,54.496L343,69.587L339.381,69.587L339.381,55.389C339.381,50.876 336.937,48.055 332.658,48.055C328.475,48.055 325.373,51.112 325.373,55.671L325.373,69.587L321.751,69.587L321.751,45.281Z" style="fill:rgb(121,193,66);fill-rule:nonzero;"/>
        <path d="M85.672,69.586L82.053,69.586L82.053,45.281L85.672,45.281L85.672,69.586ZM85.955,39.969L81.819,39.969L81.819,35.972L85.955,35.972L85.955,39.969Z" style="fill:rgb(154,160,167);fill-rule:nonzero;"/>
        <path d="M105.792,77.202C101.75,77.202 97.988,76.074 94.745,73.818L96.391,70.997C99.164,73.019 102.267,74.099 105.748,74.099C111.105,74.099 114.584,71.139 114.584,65.45L114.584,62.582C112.47,65.402 109.507,67.706 105.041,67.706C99.211,67.706 93.616,63.333 93.616,56.329L93.616,56.235C93.616,49.136 99.256,44.763 105.041,44.763C109.601,44.763 112.563,47.02 114.539,49.655L114.539,45.28L118.158,45.28L118.158,65.357C118.158,69.116 117.03,71.985 115.055,73.959C112.891,76.122 109.647,77.202 105.792,77.202ZM105.748,47.961C101.138,47.961 97.33,51.158 97.33,56.142L97.33,56.235C97.33,61.125 101.231,64.51 105.748,64.51C110.351,64.51 114.679,61.171 114.679,56.282L114.679,56.189C114.679,51.205 110.351,47.961 105.748,47.961Z" style="fill:rgb(154,160,167);fill-rule:nonzero;"/>
        <path d="M131.129,69.586L127.509,69.586L127.509,45.281L131.129,45.281L131.129,69.586ZM131.411,39.969L127.274,39.969L127.274,35.972L131.411,35.972L131.411,39.969Z" style="fill:rgb(154,160,167);fill-rule:nonzero;"/>
        <path d="M148.618,70.011C144.713,70.011 141.752,68.083 141.752,63.147L141.752,48.479L138.366,48.479L138.366,45.281L141.752,45.281L141.752,37.948L145.372,37.948L145.372,45.281L153.082,45.281L153.082,48.479L145.372,48.479L145.372,62.676C145.372,65.637 147.016,66.719 149.461,66.719C150.685,66.719 151.718,66.485 152.987,65.874L152.987,68.976C151.718,69.633 150.356,70.011 148.618,70.011Z" style="fill:rgb(154,160,167);fill-rule:nonzero;"/>
        <path d="M167.653,70.105C163.14,70.105 158.578,67.518 158.578,62.534L158.578,62.441C158.578,57.317 162.81,54.589 168.968,54.589C172.071,54.589 174.281,55.013 176.444,55.625L176.444,54.778C176.444,50.406 173.765,48.15 169.205,48.15C166.335,48.15 164.08,48.901 161.822,49.936L160.742,46.974C163.419,45.752 166.054,44.952 169.58,44.952C173.011,44.952 175.643,45.846 177.431,47.63C179.076,49.279 179.922,51.627 179.922,54.731L179.922,69.586L176.444,69.586L176.444,65.92C174.751,68.13 171.93,70.105 167.653,70.105ZM169.344,57.27C164.784,57.27 162.245,59.244 162.245,62.3L162.245,62.394C162.245,65.449 165.065,67.236 168.357,67.236C172.824,67.236 176.49,64.51 176.49,60.655L176.49,58.303C174.706,57.788 172.307,57.27 169.344,57.27Z" style="fill:rgb(154,160,167);fill-rule:nonzero;"/>
        <rect x="188.899" y="35.267" width="3.619" height="34.318" style="fill:rgb(154,160,167);fill-rule:nonzero;"/>
        <path d="M56.06,69.586L44.638,69.586L44.638,43.786L48.351,43.786L48.351,66.156L56.06,66.156C64.383,66.156 69.694,60.514 69.694,53.227L69.694,53.133C69.694,45.845 64.383,40.111 56.06,40.111L51.746,40.111L51.746,36.676L56.06,36.676C66.404,36.676 73.55,43.776 73.55,53.039L73.55,53.133C73.55,62.393 66.404,69.586 56.06,69.586Z" style="fill:rgb(154,160,167);fill-rule:nonzero;"/>
    </g>
</svg>
