<?xml version="1.0" encoding="utf-8"?>
<!-- Generator: Adobe Illustrator 25.3.1, SVG Export Plug-In . SVG Version: 6.00 Build 0)  -->
<svg version="1.1" id="Layer_1" xmlns="http://www.w3.org/2000/svg" xmlns:xlink="http://www.w3.org/1999/xlink" x="0px" y="0px"
	 viewBox="0 0 358.7 67.4" style="enable-background:new 0 0 358.7 67.4;" xml:space="preserve">
<style type="text/css">
	.st0{clip-path:url(#SVGID_2_);fill:#E9500E;}
	.st1{clip-path:url(#SVGID_2_);fill:#348735;}
	.st2{fill:#348735;}
	.st3{fill:#E9500E;}
	.st4{fill:none;stroke:#E9500E;stroke-width:6;stroke-miterlimit:10;}
</style>
<g>
	<g>
		<g>
			<defs>
				<rect id="SVGID_1_" x="11" y="17.8" width="60.1" height="41.7"/>
			</defs>
			<clipPath id="SVGID_2_">
				<use xlink:href="#SVGID_1_"  style="overflow:visible;"/>
			</clipPath>
			<path class="st0" d="M56.7,30.5c1.2,0,2.1-0.9,2.1-2.1c0-1.2-0.9-2.1-2.1-2.1c-1.2,0-2.1,1-2.1,2.1
				C54.6,29.6,55.6,30.5,56.7,30.5"/>
			<path class="st1" d="M25.2,38.9c0-8.5,6.5-15.5,14.9-16.3v-4.3C29.3,19.1,20.9,28,20.9,38.9c0,10.9,8.4,19.8,19.1,20.6v-4.3
				C31.7,54.4,25.2,47.4,25.2,38.9"/>
			<path class="st1" d="M40.1,25.6c-1.3,0.1-2.5,0.5-3.7,0.9c-4.9,2-8.3,6.8-8.3,12.4c0,5.6,3.4,10.4,8.3,12.4
				c1.2,0.5,2.4,0.8,3.7,0.9V25.6z M36.4,46.8c-2.6-1.7-4.3-4.6-4.3-7.9c0-3.3,1.7-6.2,4.3-7.9V46.8z"/>
			<path class="st1" d="M57.8,38.8c0,5.4-2.6,10.2-6.6,13.1h6.1c3-3.6,4.7-8.2,4.7-13.1c0-2.3-0.5-5.9-1.7-8.2l-3.9,1.7
				C57.4,34.3,57.8,36.5,57.8,38.8"/>
			<path class="st1" d="M46.5,26.5v-3.3v-4.4c-1.2-0.3-2.4-0.5-3.7-0.6v33.9c1.3-0.1,2.5-0.5,3.7-0.9c4.9-2,8.3-6.8,8.3-12.4
				C54.8,33.3,51.3,28.5,46.5,26.5 M46.5,46.8V31c2.6,1.7,4.3,4.6,4.3,7.9C50.8,42.2,49.1,45.1,46.5,46.8"/>
		</g>
		<g>
			<path class="st2" d="M135.6,33.2c0-1.8-1.1-2.4-3.4-2.4h-5.4v4.9h5.4C134.5,35.7,135.6,34.9,135.6,33.2z"/>
			<polygon class="st2" points="105.7,41.2 112.1,41.2 108.9,31.4 			"/>
			<path class="st2" d="M132.4,39.6h-5.6v6h5.6c2.6,0,3.8-0.9,3.8-3C136.3,40.4,135.1,39.6,132.4,39.6z"/>
			<path class="st2" d="M54,18c7.7,3.7,13.1,11.6,13.1,20.7c0,9.1-5.4,17-13.1,20.7h108.8V18H54z M86.4,50.4
				c-6.8,0-10.8-4.4-10.8-12.1c0-7.8,4-12.1,11.2-12.1c5.9,0,9.4,3,9.8,8.2h-4.7c-0.4-2.6-2.1-4-5.1-4c-4.2,0-6.4,2.8-6.4,7.9
				c0,5.1,2.3,7.8,6.2,7.8c2.9,0,4.8-1.5,5.3-4.3h4.6C96.2,47.1,92.3,50.4,86.4,50.4z M115,49.8l-1.6-4.7h-8.9l-1.5,4.7h-5l8.2-23
				h5.5l8.3,23H115z M132.8,49.8h-10.5v-23h10.8c4.8,0,7.2,2.1,7.2,5.8c0,2.3-0.9,3.9-2.8,4.7c2.4,1,3.6,2.8,3.6,5.4
				C141.2,47.2,138.3,49.8,132.8,49.8z M149.7,49.8H145v-23h4.7V49.8z"/>
		</g>
		<g>
			<g>
				<path class="st2" d="M173.3,53.7V30.2h4l-0.1,2c0.8-0.8,1.6-1.4,2.6-1.8c0.9-0.4,1.9-0.6,3.1-0.6c2.6,0,4.8,0.9,6.5,2.7
					c1.8,1.8,2.6,4,2.6,6.7c0,2.6-0.9,4.8-2.7,6.6c-1.8,1.8-3.9,2.7-6.5,2.7c-1.1,0-2.1-0.2-3-0.6c-0.9-0.4-1.8-1-2.7-1.7
					c0,0.2,0.1,0.5,0.1,0.7c0,0.2,0,0.6,0,1.1v5.7H173.3z M182.4,44.3c1.5,0,2.8-0.5,3.8-1.5c1-1,1.5-2.3,1.5-3.7
					c0-1.5-0.5-2.7-1.5-3.7c-1-1-2.3-1.5-3.8-1.5c-1.5,0-2.7,0.5-3.7,1.5c-1,1-1.5,2.2-1.5,3.7c0,1.5,0.5,2.8,1.4,3.8
					C179.7,43.8,180.9,44.3,182.4,44.3z"/>
				<path class="st2" d="M195.2,47.9V24.4h4v23.5H195.2z"/>
				<path class="st2" d="M217,47.9l0.1-2.5c-0.6,1-1.4,1.7-2.3,2.2c-0.9,0.5-2,0.7-3.3,0.7c-2.6,0-4.8-0.9-6.6-2.7
					c-1.8-1.8-2.6-4-2.6-6.7c0-2.6,0.9-4.8,2.6-6.6c1.7-1.8,3.9-2.7,6.5-2.7c1.2,0,2.2,0.2,3.1,0.7c0.9,0.5,1.8,1.2,2.6,2.1
					l-0.1-2.4h4v17.8H217z M206.5,38.9c0,1.5,0.5,2.8,1.5,3.8c1,1,2.3,1.5,3.8,1.5c1.4,0,2.6-0.5,3.6-1.5c1-1,1.5-2.2,1.5-3.6
					c0-1.5-0.5-2.8-1.5-3.8c-1-1-2.3-1.5-3.8-1.5c-1.4,0-2.6,0.5-3.6,1.5C207,36.3,206.5,37.5,206.5,38.9z"/>
				<path class="st2" d="M229.2,30.2v2c0.6-0.8,1.3-1.4,2.1-1.8c0.8-0.4,1.7-0.6,2.7-0.6c1.3,0,2.4,0.2,3.3,0.7
					c1,0.5,1.7,1.2,2.4,2.2c0.4,0.7,0.7,1.4,0.9,2.2c0.2,0.8,0.3,2,0.3,3.6v9.4h-4.2v-7.9c0-2.4-0.3-4-0.8-4.9
					c-0.6-0.9-1.5-1.3-2.9-1.3c-1.4,0-2.4,0.5-3,1.5c-0.6,1-0.9,2.6-0.9,5v7.6h-4V30.2H229.2z"/>
				<path class="st2" d="M245.9,47.9V33.9h-2.7v-3.7h2.7v-5.7h4.1v5.7h2.8v3.7H250v14.1H245.9z"/>
				<path class="st2" d="M270.8,41.1l3.1-10.9h4.4l-6.1,17.8h-2.7L266,36.6l-3.4,11.3h-2.7l-6.1-17.8h4.5l3,10.9l3.3-10.9h3.1
					L270.8,41.1z"/>
				<path class="st2" d="M281.2,47.9V30.2h4v17.8H281.2z"/>
				<path class="st2" d="M292.2,42.1v0.3c0,0.8,0.2,1.4,0.6,1.9c0.4,0.5,0.9,0.7,1.5,0.7c0.6,0,1.1-0.2,1.5-0.5
					c0.4-0.4,0.6-0.8,0.6-1.4c0-0.6-0.2-1-0.5-1.4c-0.3-0.4-1-0.7-2-1.2c-0.2-0.1-0.4-0.2-0.8-0.3c-1.2-0.5-2-0.9-2.5-1.3
					c-0.5-0.5-0.8-1-1.1-1.6c-0.2-0.6-0.4-1.3-0.4-2.1c0-1.5,0.5-2.7,1.6-3.8c1-1,2.3-1.6,3.8-1.6c1.6,0,2.8,0.5,3.7,1.4
					c0.9,0.9,1.4,2.2,1.5,3.8h-3.7v-0.1c0-0.6-0.2-1-0.5-1.3c-0.3-0.3-0.7-0.5-1.3-0.5c-0.5,0-0.8,0.2-1.1,0.5
					c-0.3,0.3-0.5,0.7-0.5,1.2c0,0.8,0.8,1.5,2.4,2.1c0.7,0.3,1.2,0.5,1.6,0.7c1.2,0.6,2.1,1.2,2.6,2c0.5,0.8,0.8,1.8,0.8,3.1
					c0,1.6-0.6,3-1.7,4.1c-1.1,1.1-2.5,1.6-4.2,1.6c-1.7,0-3.1-0.6-4.2-1.7c-1.1-1.1-1.6-2.7-1.7-4.7H292.2z"/>
				<path class="st2" d="M307.4,40.4c0.1,1.3,0.6,2.3,1.5,3c0.9,0.7,2,1.1,3.4,1.1c0.9,0,1.7-0.2,2.5-0.6c0.7-0.4,1.3-0.9,1.7-1.6
					h4.5c-0.7,1.9-1.9,3.4-3.4,4.5c-1.5,1.1-3.3,1.6-5.2,1.6c-2.6,0-4.8-0.9-6.6-2.7c-1.8-1.8-2.7-4-2.7-6.6c0-2.6,0.9-4.8,2.7-6.7
					c1.8-1.8,3.9-2.8,6.4-2.8c2.7,0,4.9,0.9,6.7,2.8c1.8,1.9,2.7,4.2,2.7,7c0,0.3,0,0.5,0,0.6c0,0.1,0,0.3,0,0.4H307.4z M317.1,37.1
					c-0.3-1.2-0.9-2.1-1.8-2.7c-0.9-0.6-1.9-0.9-3.2-0.9c-1.1,0-2.1,0.3-3,1c-0.9,0.7-1.5,1.6-1.8,2.6H317.1z"/>
			</g>
			<path class="st3" d="M285.7,26c0,1.3-1.1,2.4-2.4,2.4c-1.3,0-2.4-1.1-2.4-2.4c0-1.3,1.1-2.4,2.4-2.4
				C284.7,23.6,285.7,24.7,285.7,26z"/>
		</g>
	</g>
	<g>
		<line class="st4" x1="332.6" y1="5.5" x2="332.6" y2="35.7"/>
		<line class="st4" x1="347.7" y1="20.6" x2="317.6" y2="20.6"/>
	</g>
</g>
</svg>
